<svg width="642.001" height="72.401" viewBox="0 0 642.001 72.401"
    xmlns="http://www.w3.org/2000/svg">
    <g id="svgGroup" stroke-linecap="round" fill-rule="evenodd" font-size="9pt" stroke="#fff" stroke-width="0.25mm" fill="none" style="stroke:#fff;stroke-width:0.25mm;fill:#fff">
        <path d="M 462.1 71.2 L 450.3 71.2 L 431.3 3.5 L 440.7 0.5 L 456.5 61.1 L 471.4 8.5 L 483.3 8.5 L 498.1 61.1 L 513.8 0.8 L 522.6 3.5 L 503.7 71.2 L 491.9 71.2 L 477.1 18.6 L 462.1 71.2 Z M 136.5 71.2 L 127.5 71.2 L 127.5 1.2 L 140.1 1.2 L 171 59.4 L 171 1.2 L 180 1.2 L 180 71.2 L 167.6 71.2 L 136.5 13.4 L 136.5 71.2 Z M 114 71.2 L 72 71.2 L 72 1.2 L 114 1.2 L 114 9.4 L 81.5 9.4 L 81.5 30.7 L 109.5 30.7 L 109.5 38.7 L 81.5 38.7 L 81.5 63 L 114 63 L 114 71.2 Z M 240 71.2 L 198 71.2 L 198 1.2 L 240 1.2 L 240 9.4 L 207.5 9.4 L 207.5 30.7 L 235.5 30.7 L 235.5 38.7 L 207.5 38.7 L 207.5 63 L 240 63 L 240 71.2 Z M 376 65.3 L 380.8 57.3 Q 384.4 60.3 388.9 62.2 A 23.348 23.348 0 0 0 394.27 63.71 A 32.118 32.118 0 0 0 399.4 64.1 A 27.981 27.981 0 0 0 403.947 63.754 Q 406.37 63.354 408.331 62.494 A 13.701 13.701 0 0 0 410.8 61.1 Q 414.848 58.209 414.995 53.366 A 12.116 12.116 0 0 0 415 53 A 11.94 11.94 0 0 0 414.663 50.107 A 9.816 9.816 0 0 0 413.8 47.85 A 8.097 8.097 0 0 0 412.6 46.194 Q 411.33 44.813 409.184 43.471 A 25.81 25.81 0 0 0 409.15 43.45 Q 406.034 41.508 400.265 39.28 A 118.584 118.584 0 0 0 399 38.8 Q 391.8 36 387.5 33.15 A 21.931 21.931 0 0 1 384.411 30.703 Q 382.694 29.053 381.638 27.188 A 13.303 13.303 0 0 1 381.35 26.65 Q 379.5 23 379.5 18 Q 379.5 13 382.25 8.95 Q 385 4.9 390.35 2.45 A 25.558 25.558 0 0 1 396.25 0.615 Q 399.493 0 403.3 0 Q 409.5 0 414.45 1.25 Q 419.4 2.5 424.1 4.8 L 420.6 12.9 A 31.496 31.496 0 0 0 416.474 10.881 A 41.686 41.686 0 0 0 412.65 9.55 Q 408.1 8.2 403.1 8.2 A 27.187 27.187 0 0 0 399.07 8.48 Q 396.938 8.8 395.2 9.487 A 12.616 12.616 0 0 0 392.7 10.8 A 9.902 9.902 0 0 0 390.537 12.765 A 7.359 7.359 0 0 0 388.9 17.5 A 10.464 10.464 0 0 0 389.192 20.022 A 8.562 8.562 0 0 0 390 22.1 Q 391.056 24.019 394.091 25.847 A 23.503 23.503 0 0 0 394.35 26 A 33.003 33.003 0 0 0 396.566 27.172 Q 398.835 28.275 402.046 29.523 A 130.016 130.016 0 0 0 404.1 30.3 A 81.228 81.228 0 0 1 409.078 32.329 Q 413.464 34.3 416.45 36.4 A 26.044 26.044 0 0 1 419.49 38.878 Q 421.713 41.006 422.9 43.35 A 17.579 17.579 0 0 1 424.641 49.213 A 22.155 22.155 0 0 1 424.8 51.9 A 21.71 21.71 0 0 1 424.133 57.401 A 17.105 17.105 0 0 1 421.55 63 Q 418.3 67.6 412.55 70 A 30.521 30.521 0 0 1 405.14 72.004 A 40.027 40.027 0 0 1 399.4 72.4 Q 392.1 72.4 386.1 70.45 A 38.206 38.206 0 0 1 380.733 68.268 A 28.433 28.433 0 0 1 376 65.3 Z M 36.4 71.2 L 25.7 71.2 L 0 3.7 L 9.3 0.1 L 31.3 60.8 L 53.4 0.4 L 62 3.7 L 36.4 71.2 Z M 303.2 68.2 L 294.3 72.4 L 285.6 53.4 A 30.586 30.586 0 0 0 283.009 48.827 Q 280.503 45.222 277.3 43.3 Q 272.945 40.687 266.464 40.35 A 37.847 37.847 0 0 0 264.5 40.3 L 263 40.3 L 263 71.2 L 253.5 71.2 L 253.5 1.4 Q 258.8 0.9 263.65 0.65 A 187.94 187.94 0 0 1 269.966 0.435 A 226.267 226.267 0 0 1 274 0.4 Q 286.8 0.4 293.25 5.6 A 17.414 17.414 0 0 1 297.88 11.134 Q 299.7 14.644 299.7 19 A 19.88 19.88 0 0 1 299.049 24.22 A 14.672 14.672 0 0 1 295.35 30.75 Q 291 35.2 282.8 37.4 A 23.656 23.656 0 0 1 286.229 39.263 A 20.427 20.427 0 0 1 287.6 40.25 Q 289.569 41.797 291.405 44.31 A 29.29 29.29 0 0 1 291.65 44.65 Q 293.6 47.4 295.6 51.8 L 303.2 68.2 Z M 372 68.7 L 363.3 72.2 L 355.5 52.2 L 323.1 52.2 L 315.3 72 L 307.2 68.7 L 334.6 1.2 L 345 1.2 L 372 68.7 Z M 585.4 68.7 L 576.7 72.2 L 568.9 52.2 L 536.5 52.2 L 528.7 72 L 520.6 68.7 L 548 1.2 L 558.4 1.2 L 585.4 68.7 Z M 604.9 71.2 L 595.4 71.2 L 595.4 1.4 Q 599.5 0.9 604.45 0.65 A 200.806 200.806 0 0 1 613.38 0.404 A 221.966 221.966 0 0 1 614.7 0.4 Q 622.27 0.4 627.872 2.482 A 26.011 26.011 0 0 1 629.5 3.15 A 24.606 24.606 0 0 1 634.582 6.179 A 19.374 19.374 0 0 1 638.8 10.7 Q 642 15.5 642 21.7 A 25.258 25.258 0 0 1 641.292 27.822 A 19.268 19.268 0 0 1 638.3 34.4 A 22.312 22.312 0 0 1 630.749 41.03 A 28.065 28.065 0 0 1 628 42.35 A 34.774 34.774 0 0 1 619.911 44.574 A 47.194 47.194 0 0 1 612.7 45.1 Q 608.5 45.1 604.9 44.8 L 604.9 71.2 Z M 604.9 8.8 L 604.9 36.7 Q 606 36.838 607.431 36.952 A 96.255 96.255 0 0 0 608.8 37.05 Q 611.1 37.2 613.9 37.2 A 31.831 31.831 0 0 0 619.28 36.775 Q 622.159 36.28 624.463 35.211 A 15.221 15.221 0 0 0 627.7 33.2 A 12.896 12.896 0 0 0 632.555 23.758 A 17.32 17.32 0 0 0 632.6 22.5 A 14.452 14.452 0 0 0 631.839 17.707 A 12.136 12.136 0 0 0 627.9 12.2 A 15.462 15.462 0 0 0 622.819 9.537 Q 620.593 8.826 617.9 8.56 A 34.58 34.58 0 0 0 614.5 8.4 A 131.125 131.125 0 0 0 611.242 8.439 A 109.939 109.939 0 0 0 609.4 8.5 A 91.274 91.274 0 0 0 606.517 8.664 A 75.041 75.041 0 0 0 604.9 8.8 Z M 339.3 10.6 L 326.1 44.2 L 352.4 44.2 L 339.3 10.6 Z M 552.7 10.6 L 539.5 44.2 L 565.8 44.2 L 552.7 10.6 Z M 263 8.8 L 263 32.3 L 274 32.3 A 26.489 26.489 0 0 0 278.923 31.869 Q 282.852 31.125 285.7 29.1 Q 290.2 25.9 290.2 19.9 A 9.811 9.811 0 0 0 286.927 12.436 A 13.272 13.272 0 0 0 286 11.65 A 13.923 13.923 0 0 0 281.636 9.429 Q 279.707 8.818 277.377 8.57 A 31.944 31.944 0 0 0 274 8.4 Q 270.826 8.4 268.262 8.487 A 118.974 118.974 0 0 0 267.9 8.5 Q 265.2 8.6 263 8.8 Z" vector-effect="non-scaling-stroke"/>
    </g>
</svg>